<?xml version="1.0" encoding="utf-8"?>
<!-- Generator: Adobe Illustrator 24.1.3, SVG Export Plug-In . SVG Version: 6.00 Build 0)  -->
<svg version="1.1" xmlns="http://www.w3.org/2000/svg" xmlns:xlink="http://www.w3.org/1999/xlink" x="0px" y="0px"
	 viewBox="0 0 59.5 59.5" style="enable-background:new 0 0 59.5 59.5;" xml:space="preserve">
<style type="text/css">
	.st0{fill:none;stroke:#FFFFFF;stroke-width:4;stroke-miterlimit:10;}
	.st1{fill:#FFFFFF;}
</style>
<g id="Layer_2">
</g>
<g id="Layer_1">
	<path class="st0" d="M30.2,6.5c-12.7,0-23,10.3-23,23c0,4,1,7.9,3,11.3L7.2,51.3c-0.1,0.3,0,0.7,0.2,1c0.2,0.2,0.5,0.3,0.7,0.3
		c0.1,0,0.2,0,0.2,0l10.9-2.7c3.3,1.8,7.1,2.7,10.9,2.7c12.7,0,23-10.3,23-23S42.9,6.5,30.2,6.5z"/>
	<path class="st1" d="M41.8,37.7c-0.5,1.4-2.9,2.6-4,2.8c-1,0.1-2.3,0.2-3.7-0.2c-0.9-0.3-2-0.6-3.4-1.2c-5.9-2.5-9.8-8.4-10.1-8.8
		c-0.3-0.4-2.4-3.2-2.4-6s1.5-4.3,2.1-4.9s1.2-0.7,1.6-0.7s0.8,0,1.1,0c0.4,0,0.9-0.1,1.3,1c0.5,1.2,1.7,4,1.8,4.3
		c0.1,0.3,0.2,0.6,0,1c-0.2,0.4-0.3,0.6-0.6,1s-0.6,0.8-0.9,1c-0.3,0.3-0.6,0.6-0.3,1.2s1.5,2.5,3.3,4c2.3,2,4.2,2.6,4.7,2.9
		c0.6,0.3,0.9,0.2,1.3-0.1c0.3-0.4,1.5-1.7,1.9-2.3c0.4-0.6,0.8-0.5,1.3-0.3c0.5,0.2,3.4,1.6,4,1.9c0.6,0.3,1,0.4,1.1,0.7
		C42.3,35.1,42.3,36.3,41.8,37.7z"/>
</g>
</svg>
